<svg xmlns="http://www.w3.org/2000/svg" width="256" height="288" viewBox="0 0 256 288"><defs>
<linearGradient id="body" x1="90" y1="87" x2="164" y2="254" gradientUnits="userSpaceOnUse"><stop offset="0" stop-color="#5C9AFF"/><stop offset="0.52" stop-color="#4386FA"/><stop offset="1" stop-color="#8271F0"/></linearGradient>
<linearGradient id="belly" x1="113" y1="193" x2="140" y2="247" gradientUnits="userSpaceOnUse"><stop offset="0" stop-color="#7299FF"/><stop offset="1" stop-color="#9983F7"/></linearGradient>
<linearGradient id="ears" x1="88" y1="40" x2="113" y2="109" gradientUnits="userSpaceOnUse"><stop offset="0" stop-color="#BAD3FF"/><stop offset="1" stop-color="#9EA6FA"/></linearGradient>
<linearGradient id="tail" x1="40" y1="148" x2="73" y2="224" gradientUnits="userSpaceOnUse"><stop offset="0" stop-color="#65A9FF"/><stop offset="0.7" stop-color="#82E6ED"/><stop offset="1" stop-color="#74CCF4"/></linearGradient>
<linearGradient id="foot" x1="102" y1="238" x2="115" y2="266" gradientUnits="userSpaceOnUse"><stop offset="0" stop-color="#7B7BEE"/><stop offset="1" stop-color="#9988F4"/></linearGradient>
<radialGradient id="eye" cx="0.35" cy="0.25" r="0.8"><stop offset="0" stop-color="#343252"/><stop offset="1" stop-color="#272947"/></radialGradient>
</defs><g transform="translate(0 0)"><g transform="translate(0 0) rotate(0 105 257)"><path d="M96 242 C97 249 89 251 89 257 C89 265 119 265 120 258 C121 251 113 249 113 242 Z" fill="url(#foot)" stroke="#455A9B" stroke-width="2.4" stroke-linejoin="round"></path><ellipse cx="104" cy="258" rx="8.6" ry="3.3" fill="#ADA0FF" opacity="0.58"></ellipse></g><g transform="translate(0 0) rotate(0 151 257)"><path d="M142 242 C143 249 135 251 135 257 C135 265 165 265 166 258 C167 251 159 249 159 242 Z" fill="url(#foot)" stroke="#455A9B" stroke-width="2.4" stroke-linejoin="round"></path><ellipse cx="150" cy="258" rx="8.6" ry="3.3" fill="#ADA0FF" opacity="0.58"></ellipse></g><g transform="translate(0 2.858) rotate(-2.118 128 246) translate(128 246) scale(1 0.986) translate(-128 -246)"><g transform="rotate(-4.53 79 218)"><path d="M79 211 C57 210 43 201 42 182 C42 166 46 157 39 136 C38 133 36 129 36 133 C35 144 39 155 35 176 C30 205 47 226 79 228 Z" fill="url(#tail)" stroke="#455A9B" stroke-width="2.35" stroke-linejoin="round"></path><path d="M39 172 C35 193 45 207 61 215" fill="none" stroke="#ADF5F0" stroke-width="2.8" stroke-linecap="round" stroke-linejoin="round" opacity="0.55"></path></g><path d="M73.635 197.683 Q64.187 214.177 65.187 226.177 A9 9 0 0 0 82.813 229.823 Q81.813 217.823 86.365 200.317 Z" fill="url(#body)" stroke="#455A9B" stroke-width="2.4" stroke-linejoin="round"></path><ellipse cx="72.5" cy="226" rx="5.2" ry="4.5" fill="#9CABFF" opacity="0.4"></ellipse><path d="M179.561 200.888 Q184.084 219.23 181.084 230.23 A9 9 0 0 0 198.916 227.77 Q201.916 216.77 192.439 199.112 Z" fill="url(#body)" stroke="#455A9B" stroke-width="2.4" stroke-linejoin="round"></path><ellipse cx="188.5" cy="227" rx="5.2" ry="4.5" fill="#9CABFF" opacity="0.4"></ellipse><path d="M83 233 C72 223 71 211 75 196 C68 181 67 163 72 146 C75 132 80 120 88 108 C91 101 84.514 93.414 80.491 85.876 L65.786 58.568 C60.641 50.17 62.697 42.837 68.515 41.059 C74.332 39.281 77.961 43.845 81.853 50.392 L97.681 78.56 C101.834 87.09 104 96 116 96 C128 94 140 95 151 97 C161 99 169.587 93.965 174.201 84.6 L191.01 50.918 C194.141 44.346 198.914 40.077 203.513 42.877 C210.086 46.009 209.092 51.926 204.975 58.333 L191.463 84.456 C187.014 92.835 178 100 181 110 C188 121 194 132 198 147 C203 163 202 181 196 197 C198 214 192 229 178 238 C164 247 148 252 131 252 C113 253 96 247 83 233 Z" fill="url(#body)" stroke="#455A9B" stroke-width="2.6" stroke-linejoin="round"></path><path d="M71.677 49.719 C69.17 46.016 66.589 49.383 69.358 55.069 L85.448 85.221 C89.471 92.759 90.257 98.707 97.59 100.764 C103.145 97.003 98.131 89.597 94.108 82.059 Z" fill="url(#ears)" opacity="0.88"></path><path d="M200.216 50.436 C203.837 46.988 205.313 50.277 201.195 56.684 L187.684 82.808 C183.235 91.187 179.773 99.731 172.538 100.545 C168.104 96.758 174.69 87.724 178.808 81.317 Z" fill="url(#ears)" opacity="0.88"></path><path d="M95 213 C98 196 112 192 127 193 C145 190 164 199 169 216 C175 235 157 246 137 248 C116 248 92 239 95 213 Z" fill="url(#belly)" opacity="0.9"></path><path d="M91 114 C102 105 117 102 129 103" fill="none" stroke="#91BCFF" stroke-width="3.2" stroke-linecap="round" opacity="0.37"></path><ellipse cx="86" cy="192" rx="10" ry="4.5" fill="#A1A1FA" opacity="0.5"></ellipse><ellipse cx="180" cy="192" rx="10" ry="4.5" fill="#A1A1FA" opacity="0.5"></ellipse><path d="M96 145 Q106 141 116 143" fill="none" stroke="#455A9B" stroke-width="4.8" stroke-linecap="round" stroke-linejoin="round"></path><path d="M145 145 Q155 141 165 143" fill="none" stroke="#455A9B" stroke-width="4.8" stroke-linecap="round" stroke-linejoin="round"></path><ellipse cx="106" cy="166" rx="15.8" ry="13.62" fill="#FAFDFF"></ellipse><ellipse cx="106" cy="170.5" rx="9.8" ry="8.853" fill="url(#eye)"></ellipse><ellipse cx="102.9" cy="166.5" rx="3.6" ry="3.807" fill="#FFFFFF"></ellipse><ellipse cx="109.6" cy="174.5" rx="1.5" ry="1.594" fill="#B7BFE9"></ellipse><ellipse cx="155" cy="166" rx="15.8" ry="13.62" fill="#FAFDFF"></ellipse><ellipse cx="155" cy="170.5" rx="9.8" ry="8.853" fill="url(#eye)"></ellipse><ellipse cx="151.9" cy="166.5" rx="3.6" ry="3.807" fill="#FFFFFF"></ellipse><ellipse cx="158.6" cy="174.5" rx="1.5" ry="1.594" fill="#B7BFE9"></ellipse><path d="M126 200 Q131 197.4 136 200" fill="none" stroke="#455A9B" stroke-width="3.2" stroke-linecap="round" stroke-linejoin="round"></path></g></g></svg>
