<svg xmlns="http://www.w3.org/2000/svg" width="256" height="288" viewBox="0 0 256 288"><defs>
<linearGradient id="body" x1="90" y1="87" x2="164" y2="254" gradientUnits="userSpaceOnUse"><stop offset="0" stop-color="#5C9AFF"/><stop offset="0.52" stop-color="#4386FA"/><stop offset="1" stop-color="#8271F0"/></linearGradient>
<linearGradient id="belly" x1="113" y1="193" x2="140" y2="247" gradientUnits="userSpaceOnUse"><stop offset="0" stop-color="#7299FF"/><stop offset="1" stop-color="#9983F7"/></linearGradient>
<linearGradient id="ears" x1="88" y1="40" x2="113" y2="109" gradientUnits="userSpaceOnUse"><stop offset="0" stop-color="#BAD3FF"/><stop offset="1" stop-color="#9EA6FA"/></linearGradient>
<linearGradient id="tail" x1="40" y1="148" x2="73" y2="224" gradientUnits="userSpaceOnUse"><stop offset="0" stop-color="#65A9FF"/><stop offset="0.7" stop-color="#82E6ED"/><stop offset="1" stop-color="#74CCF4"/></linearGradient>
<linearGradient id="foot" x1="102" y1="238" x2="115" y2="266" gradientUnits="userSpaceOnUse"><stop offset="0" stop-color="#7B7BEE"/><stop offset="1" stop-color="#9988F4"/></linearGradient>
<radialGradient id="eye" cx="0.35" cy="0.25" r="0.8"><stop offset="0" stop-color="#343252"/><stop offset="1" stop-color="#272947"/></radialGradient>
</defs><g transform="translate(0 0)"><g transform="translate(0 0) rotate(0 105 257)"><path d="M96 242 C97 249 89 251 89 257 C89 265 119 265 120 258 C121 251 113 249 113 242 Z" fill="url(#foot)" stroke="#455A9B" stroke-width="2.4" stroke-linejoin="round"></path><ellipse cx="104" cy="258" rx="8.6" ry="3.3" fill="#ADA0FF" opacity="0.58"></ellipse></g><g transform="translate(0 0) rotate(0 151 257)"><path d="M142 242 C143 249 135 251 135 257 C135 265 165 265 166 258 C167 251 159 249 159 242 Z" fill="url(#foot)" stroke="#455A9B" stroke-width="2.4" stroke-linejoin="round"></path><ellipse cx="150" cy="258" rx="8.6" ry="3.3" fill="#ADA0FF" opacity="0.58"></ellipse></g><g transform="translate(0 1.664) rotate(-2.63 128 246) translate(128 246) scale(1 0.986) translate(-128 -246)"><g transform="rotate(-5.383 79 218)"><path d="M79 211 C57 210 43 201 42 182 C42 166 46 157 39 136 C38 133 36 129 36 133 C35 144 39 155 35 176 C30 205 47 226 79 228 Z" fill="url(#tail)" stroke="#455A9B" stroke-width="2.35" stroke-linejoin="round"></path><path d="M39 172 C35 193 45 207 61 215" fill="none" stroke="#ADF5F0" stroke-width="2.8" stroke-linecap="round" stroke-linejoin="round" opacity="0.55"></path></g><path d="M73.635 197.683 Q64.187 214.177 65.187 226.177 A9 9 0 0 0 82.813 229.823 Q81.813 217.823 86.365 200.317 Z" fill="url(#body)" stroke="#455A9B" stroke-width="2.4" stroke-linejoin="round"></path><ellipse cx="72.5" cy="226" rx="5.2" ry="4.5" fill="#9CABFF" opacity="0.4"></ellipse><path d="M179.561 200.888 Q184.084 219.23 181.084 230.23 A9 9 0 0 0 198.916 227.77 Q201.916 216.77 192.439 199.112 Z" fill="url(#body)" stroke="#455A9B" stroke-width="2.4" stroke-linejoin="round"></path><ellipse cx="188.5" cy="227" rx="5.2" ry="4.5" fill="#9CABFF" opacity="0.4"></ellipse><path d="M83 233 C72 223 71 211 75 196 C68 181 67 163 72 146 C75 132 80 120 88 108 C91 101 84.357 93.586 80.223 86.109 L65.113 59.022 C59.843 50.702 61.791 43.339 67.581 41.475 C73.371 39.611 77.068 44.12 81.056 50.608 L97.302 78.538 C101.582 87.005 104 96 116 96 C128 94 140 95 151 97 C161 99 169.737 93.886 174.49 84.59 L191.798 51.162 C195.027 44.637 199.862 40.44 204.42 43.308 C210.945 46.537 209.864 52.439 205.651 58.784 L191.752 84.703 C187.179 93.015 178 100 181 110 C188 121 194 132 198 147 C203 163 202 181 196 197 C198 214 192 229 178 238 C164 247 148 252 131 252 C113 253 96 247 83 233 Z" fill="url(#body)" stroke="#455A9B" stroke-width="2.6" stroke-linejoin="round"></path><path d="M70.872 50.087 C68.31 46.422 65.779 49.827 68.633 55.471 L85.17 85.38 C89.304 92.857 90.179 98.793 97.541 100.74 C103.04 96.898 97.916 89.566 93.782 82.089 Z" fill="url(#ears)" opacity="0.88"></path><path d="M201.011 50.817 C204.683 47.423 206.109 50.735 201.897 57.079 L187.998 82.999 C183.425 91.311 179.836 99.803 172.59 100.508 C168.212 96.656 174.933 87.721 179.145 81.377 Z" fill="url(#ears)" opacity="0.88"></path><path d="M95 213 C98 196 112 192 127 193 C145 190 164 199 169 216 C175 235 157 246 137 248 C116 248 92 239 95 213 Z" fill="url(#belly)" opacity="0.9"></path><path d="M91 114 C102 105 117 102 129 103" fill="none" stroke="#91BCFF" stroke-width="3.2" stroke-linecap="round" opacity="0.37"></path><ellipse cx="86" cy="192" rx="10" ry="4.5" fill="#A1A1FA" opacity="0.5"></ellipse><ellipse cx="180" cy="192" rx="10" ry="4.5" fill="#A1A1FA" opacity="0.5"></ellipse><path d="M96 145 Q106 141 116 143" fill="none" stroke="#455A9B" stroke-width="4.8" stroke-linecap="round" stroke-linejoin="round"></path><path d="M145 145 Q155 141 165 143" fill="none" stroke="#455A9B" stroke-width="4.8" stroke-linecap="round" stroke-linejoin="round"></path><ellipse cx="106" cy="166" rx="15.8" ry="13.62" fill="#FAFDFF"></ellipse><ellipse cx="106" cy="170.5" rx="9.8" ry="8.853" fill="url(#eye)"></ellipse><ellipse cx="102.9" cy="166.5" rx="3.6" ry="3.807" fill="#FFFFFF"></ellipse><ellipse cx="109.6" cy="174.5" rx="1.5" ry="1.594" fill="#B7BFE9"></ellipse><ellipse cx="155" cy="166" rx="15.8" ry="13.62" fill="#FAFDFF"></ellipse><ellipse cx="155" cy="170.5" rx="9.8" ry="8.853" fill="url(#eye)"></ellipse><ellipse cx="151.9" cy="166.5" rx="3.6" ry="3.807" fill="#FFFFFF"></ellipse><ellipse cx="158.6" cy="174.5" rx="1.5" ry="1.594" fill="#B7BFE9"></ellipse><path d="M126 200 Q131 197.4 136 200" fill="none" stroke="#455A9B" stroke-width="3.2" stroke-linecap="round" stroke-linejoin="round"></path></g></g></svg>
