<svg xmlns="http://www.w3.org/2000/svg" width="256" height="288" viewBox="0 0 256 288"><defs>
<linearGradient id="body" x1="90" y1="87" x2="164" y2="254" gradientUnits="userSpaceOnUse"><stop offset="0" stop-color="#5C9AFF"/><stop offset="0.52" stop-color="#4386FA"/><stop offset="1" stop-color="#8271F0"/></linearGradient>
<linearGradient id="belly" x1="113" y1="193" x2="140" y2="247" gradientUnits="userSpaceOnUse"><stop offset="0" stop-color="#7299FF"/><stop offset="1" stop-color="#9983F7"/></linearGradient>
<linearGradient id="ears" x1="88" y1="40" x2="113" y2="109" gradientUnits="userSpaceOnUse"><stop offset="0" stop-color="#BAD3FF"/><stop offset="1" stop-color="#9EA6FA"/></linearGradient>
<linearGradient id="tail" x1="40" y1="148" x2="73" y2="224" gradientUnits="userSpaceOnUse"><stop offset="0" stop-color="#65A9FF"/><stop offset="0.7" stop-color="#82E6ED"/><stop offset="1" stop-color="#74CCF4"/></linearGradient>
<linearGradient id="foot" x1="102" y1="238" x2="115" y2="266" gradientUnits="userSpaceOnUse"><stop offset="0" stop-color="#7B7BEE"/><stop offset="1" stop-color="#9988F4"/></linearGradient>
<radialGradient id="eye" cx="0.35" cy="0.25" r="0.8"><stop offset="0" stop-color="#343252"/><stop offset="1" stop-color="#272947"/></radialGradient>
</defs><g transform="translate(0 0)"><g transform="translate(0 0) rotate(0 105 257)"><path d="M96 242 C97 249 89 251 89 257 C89 265 119 265 120 258 C121 251 113 249 113 242 Z" fill="url(#foot)" stroke="#455A9B" stroke-width="2.4" stroke-linejoin="round"></path><ellipse cx="104" cy="258" rx="8.6" ry="3.3" fill="#ADA0FF" opacity="0.58"></ellipse></g><g transform="translate(0 0) rotate(0 151 257)"><path d="M142 242 C143 249 135 251 135 257 C135 265 165 265 166 258 C167 251 159 249 159 242 Z" fill="url(#foot)" stroke="#455A9B" stroke-width="2.4" stroke-linejoin="round"></path><ellipse cx="150" cy="258" rx="8.6" ry="3.3" fill="#ADA0FF" opacity="0.58"></ellipse></g><g transform="translate(0 -1.06) rotate(0.771 128 246) translate(128 246) scale(1 1) translate(-128 -246)"><g transform="rotate(-1.386 79 218)"><path d="M79 211 C57 210 43 201 42 182 C42 166 46 157 39 136 C38 133 36 129 36 133 C35 144 39 155 35 176 C30 205 47 226 79 228 Z" fill="url(#tail)" stroke="#455A9B" stroke-width="2.35" stroke-linejoin="round"></path><path d="M39 172 C35 193 45 207 61 215" fill="none" stroke="#ADF5F0" stroke-width="2.8" stroke-linecap="round" stroke-linejoin="round" opacity="0.55"></path></g><path d="M80.852 191.77 Q64.565 203.373 62.565 183.724 A9 9 0 0 0 57.435 200.978 Q59.435 220.627 77.148 204.23 Z" fill="url(#body)" stroke="#455A9B" stroke-width="2.4" stroke-linejoin="round"></path><ellipse cx="58.5" cy="190.351" rx="5.2" ry="4.5" fill="#9CABFF" opacity="0.4"></ellipse><path d="M188.489 204.327 Q209.062 218.761 213.062 201.112 A9 9 0 0 0 208.938 183.59 Q204.938 201.239 185.511 191.673 Z" fill="url(#body)" stroke="#455A9B" stroke-width="2.4" stroke-linejoin="round"></path><ellipse cx="209.5" cy="190.351" rx="5.2" ry="4.5" fill="#9CABFF" opacity="0.4"></ellipse><path d="M83 233 C72 223 71 211 75 196 C68 181 67 163 72 146 C75 132 80 120 88 108 C91 101 85.635 92.314 82.39 84.41 L70.501 55.763 C66.226 46.89 69.009 39.801 74.975 38.617 C80.941 37.432 84.094 42.338 87.308 49.242 L100.227 78.858 C103.503 87.761 104 96 116 96 C128 94 140 95 151 97 C161 99 168.281 94.789 171.587 84.886 L183.692 49.242 C185.906 42.307 190.059 37.432 194.995 39.586 C201.93 41.8 201.745 47.798 198.53 54.702 L188.672 82.411 C185.396 91.314 178 100 181 110 C188 121 194 132 198 147 C203 163 202 181 196 197 C198 214 192 229 178 238 C164 247 148 252 131 252 C113 253 96 247 83 233 Z" fill="url(#body)" stroke="#455A9B" stroke-width="2.6" stroke-linejoin="round"></path><path d="M77.251 47.551 C75.129 43.615 72.223 46.706 74.407 52.641 L87.387 84.256 C90.633 92.16 90.817 98.157 97.907 100.94 C103.811 97.756 99.567 89.883 96.322 81.98 Z" fill="url(#ears)" opacity="0.88"></path><path d="M192.749 47.52 C195.871 43.615 197.777 46.675 194.563 53.579 L184.705 81.288 C181.429 90.192 179.152 99.126 172.094 100.909 C167.189 97.756 172.495 87.915 175.709 81.011 Z" fill="url(#ears)" opacity="0.88"></path><path d="M95 213 C98 196 112 192 127 193 C145 190 164 199 169 216 C175 235 157 246 137 248 C116 248 92 239 95 213 Z" fill="url(#belly)" opacity="0.9"></path><path d="M91 114 C102 105 117 102 129 103" fill="none" stroke="#91BCFF" stroke-width="3.2" stroke-linecap="round" opacity="0.37"></path><ellipse cx="86" cy="192" rx="10" ry="4.5" fill="#A1A1FA" opacity="0.5"></ellipse><ellipse cx="180" cy="192" rx="10" ry="4.5" fill="#A1A1FA" opacity="0.5"></ellipse><path d="M96 137.617 Q106 133.117 116 134.617" fill="none" stroke="#455A9B" stroke-width="4.8" stroke-linecap="round" stroke-linejoin="round"></path><path d="M145 137.617 Q155 133.117 165 134.617" fill="none" stroke="#455A9B" stroke-width="4.8" stroke-linecap="round" stroke-linejoin="round"></path><ellipse cx="106" cy="166" rx="15.8" ry="22.7" fill="#FAFDFF"></ellipse><ellipse cx="106" cy="162" rx="9.8" ry="12" fill="url(#eye)"></ellipse><ellipse cx="102.9" cy="158" rx="3.6" ry="4.3" fill="#FFFFFF"></ellipse><ellipse cx="109.6" cy="166" rx="1.5" ry="1.8" fill="#B7BFE9"></ellipse><ellipse cx="155" cy="166" rx="15.8" ry="22.7" fill="#FAFDFF"></ellipse><ellipse cx="155" cy="162" rx="9.8" ry="12" fill="url(#eye)"></ellipse><ellipse cx="151.9" cy="158" rx="3.6" ry="4.3" fill="#FFFFFF"></ellipse><ellipse cx="158.6" cy="166" rx="1.5" ry="1.8" fill="#B7BFE9"></ellipse><path d="M121 200 Q129 196 139 199" fill="none" stroke="#455A9B" stroke-width="3.2" stroke-linecap="round" stroke-linejoin="round"></path></g></g></svg>
