<svg xmlns="http://www.w3.org/2000/svg" width="256" height="288" viewBox="0 0 256 288"><defs>
<linearGradient id="body" x1="90" y1="87" x2="164" y2="254" gradientUnits="userSpaceOnUse"><stop offset="0" stop-color="#5C9AFF"/><stop offset="0.52" stop-color="#4386FA"/><stop offset="1" stop-color="#8271F0"/></linearGradient>
<linearGradient id="belly" x1="113" y1="193" x2="140" y2="247" gradientUnits="userSpaceOnUse"><stop offset="0" stop-color="#7299FF"/><stop offset="1" stop-color="#9983F7"/></linearGradient>
<linearGradient id="ears" x1="88" y1="40" x2="113" y2="109" gradientUnits="userSpaceOnUse"><stop offset="0" stop-color="#BAD3FF"/><stop offset="1" stop-color="#9EA6FA"/></linearGradient>
<linearGradient id="tail" x1="40" y1="148" x2="73" y2="224" gradientUnits="userSpaceOnUse"><stop offset="0" stop-color="#65A9FF"/><stop offset="0.7" stop-color="#82E6ED"/><stop offset="1" stop-color="#74CCF4"/></linearGradient>
<linearGradient id="foot" x1="102" y1="238" x2="115" y2="266" gradientUnits="userSpaceOnUse"><stop offset="0" stop-color="#7B7BEE"/><stop offset="1" stop-color="#9988F4"/></linearGradient>
<radialGradient id="eye" cx="0.35" cy="0.25" r="0.8"><stop offset="0" stop-color="#343252"/><stop offset="1" stop-color="#272947"/></radialGradient>
</defs><g transform="translate(0 -0.116)"><g transform="translate(0 0) rotate(0 105 257)"><path d="M96 242 C97 249 89 251 89 257 C89 265 119 265 120 258 C121 251 113 249 113 242 Z" fill="url(#foot)" stroke="#455A9B" stroke-width="2.4" stroke-linejoin="round"></path><ellipse cx="104" cy="258" rx="8.6" ry="3.3" fill="#ADA0FF" opacity="0.58"></ellipse></g><g transform="translate(0 0) rotate(0 151 257)"><path d="M142 242 C143 249 135 251 135 257 C135 265 165 265 166 258 C167 251 159 249 159 242 Z" fill="url(#foot)" stroke="#455A9B" stroke-width="2.4" stroke-linejoin="round"></path><ellipse cx="150" cy="258" rx="8.6" ry="3.3" fill="#ADA0FF" opacity="0.58"></ellipse></g><g transform="translate(0 0) rotate(0 128 246) translate(128 246) scale(1 0.972) translate(-128 -246)"><g transform="rotate(-1.187 79 218)"><path d="M79 211 C57 210 43 201 42 182 C42 166 46 157 39 136 C38 133 36 129 36 133 C35 144 39 155 35 176 C30 205 47 226 79 228 Z" fill="url(#tail)" stroke="#455A9B" stroke-width="2.35" stroke-linejoin="round"></path><path d="M39 172 C35 193 45 207 61 215" fill="none" stroke="#ADF5F0" stroke-width="2.8" stroke-linecap="round" stroke-linejoin="round" opacity="0.55"></path></g><path d="M84.19 193.087 Q74.229 184.156 73.207 174.369 A9 9 0 0 0 58.835 185.206 Q59.857 194.993 73.81 200.913 Z" fill="url(#body)" stroke="#455A9B" stroke-width="2.4" stroke-linejoin="round"></path><ellipse cx="64.521" cy="177.788" rx="5.2" ry="4.5" fill="#9CABFF" opacity="0.4"></ellipse><path d="M192.264 200.813 Q206.927 193.855 207.267 184.366 A9 9 0 0 0 192.69 173.805 Q192.35 183.294 181.736 193.187 Z" fill="url(#body)" stroke="#455A9B" stroke-width="2.4" stroke-linejoin="round"></path><ellipse cx="198.479" cy="177.086" rx="5.2" ry="4.5" fill="#9CABFF" opacity="0.4"></ellipse><path d="M83 233 C72 223 71 211 75 196 C68 181 67 163 72 146 C75 132 80 120 88 108 C91 101 85.458 92.473 82.093 84.62 L69.77 56.157 C65.36 47.35 68.035 40.22 73.982 38.945 C79.93 37.669 83.157 42.526 86.476 49.381 L99.844 78.796 C103.255 87.649 104 96 116 96 C128 94 140 95 151 97 C161 99 168.422 94.687 171.879 84.836 L184.524 49.381 C186.844 42.48 191.07 37.669 195.973 39.897 C202.873 42.218 202.597 48.211 199.278 55.066 L188.999 82.622 C185.588 91.474 178 100 181 110 C188 121 194 132 198 147 C203 163 202 181 196 197 C198 214 192 229 178 238 C164 247 148 252 131 252 C113 253 96 247 83 233 Z" fill="url(#body)" stroke="#455A9B" stroke-width="2.6" stroke-linejoin="round"></path><path d="M76.394 47.843 C74.212 43.939 71.354 47.074 73.628 52.976 L87.088 84.389 C90.453 92.243 90.729 98.237 97.86 100.911 C103.715 97.638 99.351 89.831 95.986 81.977 Z" fill="url(#ears)" opacity="0.88"></path><path d="M193.607 47.797 C196.788 43.939 198.647 47.028 195.328 53.883 L185.049 81.439 C181.638 90.291 179.226 99.189 172.141 100.865 C167.285 97.638 172.74 87.879 176.059 81.024 Z" fill="url(#ears)" opacity="0.88"></path><path d="M95 213 C98 196 112 192 127 193 C145 190 164 199 169 216 C175 235 157 246 137 248 C116 248 92 239 95 213 Z" fill="url(#belly)" opacity="0.9"></path><path d="M91 114 C102 105 117 102 129 103" fill="none" stroke="#91BCFF" stroke-width="3.2" stroke-linecap="round" opacity="0.37"></path><ellipse cx="86" cy="192" rx="10" ry="4.5" fill="#A1A1FA" opacity="0.5"></ellipse><ellipse cx="180" cy="192" rx="10" ry="4.5" fill="#A1A1FA" opacity="0.5"></ellipse><path d="M96 140.021 Q106 137.021 116 140.021" fill="none" stroke="#455A9B" stroke-width="4.8" stroke-linecap="round" stroke-linejoin="round"></path><path d="M145 140.021 Q155 137.021 165 140.021" fill="none" stroke="#455A9B" stroke-width="4.8" stroke-linecap="round" stroke-linejoin="round"></path><ellipse cx="106" cy="166" rx="15.8" ry="22.7" fill="#FAFDFF"></ellipse><ellipse cx="106" cy="166" rx="9.8" ry="12" fill="url(#eye)"></ellipse><ellipse cx="102.9" cy="162" rx="3.6" ry="4.3" fill="#FFFFFF"></ellipse><ellipse cx="109.6" cy="170" rx="1.5" ry="1.8" fill="#B7BFE9"></ellipse><ellipse cx="155" cy="166" rx="15.8" ry="22.7" fill="#FAFDFF"></ellipse><ellipse cx="155" cy="166" rx="9.8" ry="12" fill="url(#eye)"></ellipse><ellipse cx="151.9" cy="162" rx="3.6" ry="4.3" fill="#FFFFFF"></ellipse><ellipse cx="158.6" cy="170" rx="1.5" ry="1.8" fill="#B7BFE9"></ellipse><path d="M117 201 Q131 208 145 201 Q131 223.83 117 201 Z" fill="#455A9B" stroke="#455A9B" stroke-width="3.2" stroke-linejoin="round"></path><path d="M127.043 210.277 Q131 207.298 134.957 210.277 Q131 212.936 127.043 210.277 Z" fill="#D6A8DF"></path></g></g></svg>
