<svg xmlns="http://www.w3.org/2000/svg" width="256" height="288" viewBox="0 0 256 288"><defs>
<linearGradient id="body" x1="90" y1="87" x2="164" y2="254" gradientUnits="userSpaceOnUse"><stop offset="0" stop-color="#5C9AFF"/><stop offset="0.52" stop-color="#4386FA"/><stop offset="1" stop-color="#8271F0"/></linearGradient>
<linearGradient id="belly" x1="113" y1="193" x2="140" y2="247" gradientUnits="userSpaceOnUse"><stop offset="0" stop-color="#7299FF"/><stop offset="1" stop-color="#9983F7"/></linearGradient>
<linearGradient id="ears" x1="88" y1="40" x2="113" y2="109" gradientUnits="userSpaceOnUse"><stop offset="0" stop-color="#BAD3FF"/><stop offset="1" stop-color="#9EA6FA"/></linearGradient>
<linearGradient id="tail" x1="40" y1="148" x2="73" y2="224" gradientUnits="userSpaceOnUse"><stop offset="0" stop-color="#65A9FF"/><stop offset="0.7" stop-color="#82E6ED"/><stop offset="1" stop-color="#74CCF4"/></linearGradient>
<linearGradient id="foot" x1="102" y1="238" x2="115" y2="266" gradientUnits="userSpaceOnUse"><stop offset="0" stop-color="#7B7BEE"/><stop offset="1" stop-color="#9988F4"/></linearGradient>
<radialGradient id="eye" cx="0.35" cy="0.25" r="0.8"><stop offset="0" stop-color="#343252"/><stop offset="1" stop-color="#272947"/></radialGradient>
</defs><g transform="translate(0 0)"><g transform="translate(0 0) rotate(0 105 257)"><path d="M96 242 C97 249 89 251 89 257 C89 265 119 265 120 258 C121 251 113 249 113 242 Z" fill="url(#foot)" stroke="#455A9B" stroke-width="2.4" stroke-linejoin="round"></path><ellipse cx="104" cy="258" rx="8.6" ry="3.3" fill="#ADA0FF" opacity="0.58"></ellipse></g><g transform="translate(0 0) rotate(0 151 257)"><path d="M142 242 C143 249 135 251 135 257 C135 265 165 265 166 258 C167 251 159 249 159 242 Z" fill="url(#foot)" stroke="#455A9B" stroke-width="2.4" stroke-linejoin="round"></path><ellipse cx="150" cy="258" rx="8.6" ry="3.3" fill="#ADA0FF" opacity="0.58"></ellipse></g><g transform="translate(0 -0.783) rotate(0 128 246) translate(128 246) scale(1 1.005) translate(-128 -246)"><g transform="rotate(0.793 79 218)"><path d="M79 211 C57 210 43 201 42 182 C42 166 46 157 39 136 C38 133 36 129 36 133 C35 144 39 155 35 176 C30 205 47 226 79 228 Z" fill="url(#tail)" stroke="#455A9B" stroke-width="2.35" stroke-linejoin="round"></path><path d="M39 172 C35 193 45 207 61 215" fill="none" stroke="#ADF5F0" stroke-width="2.8" stroke-linecap="round" stroke-linejoin="round" opacity="0.55"></path></g><path d="M73.05 194.382 Q62.762 208.375 59.762 218.375 A9 9 0 0 0 76.238 225.625 Q79.238 215.625 84.95 199.618 Z" fill="url(#body)" stroke="#455A9B" stroke-width="2.4" stroke-linejoin="round"></path><ellipse cx="66.5" cy="220" rx="5.2" ry="4.5" fill="#9CABFF" opacity="0.4"></ellipse><path d="M181.242 200.016 Q189.028 215.176 190.028 222.176 A9 9 0 0 0 205.972 213.824 Q204.972 206.824 192.758 193.984 Z" fill="url(#body)" stroke="#455A9B" stroke-width="2.4" stroke-linejoin="round"></path><ellipse cx="196.5" cy="216" rx="5.2" ry="4.5" fill="#9CABFF" opacity="0.4"></ellipse><path d="M83 233 C72 223 71 211 75 196 C68 181 67 163 72 146 C75 132 80 120 88 108 C91 101 86.083 91.931 83.139 83.91 L72.34 54.835 C68.402 45.808 71.45 38.829 77.457 37.87 C83.464 36.912 86.429 41.932 89.381 48.953 L101.173 79.035 C104.111 88.056 104 96 116 96 C128 94 140 95 151 97 C161 99 167.938 95.049 170.869 85.028 L181.619 48.953 C183.571 41.939 187.536 36.912 192.55 38.877 C199.563 40.828 199.605 46.828 196.653 53.849 L187.847 81.911 C184.91 90.931 178 100 181 110 C188 121 194 132 198 147 C203 163 202 181 196 197 C198 214 192 229 178 238 C164 247 148 252 131 252 C113 253 96 247 83 233 Z" fill="url(#body)" stroke="#455A9B" stroke-width="2.6" stroke-linejoin="round"></path><path d="M79.395 46.884 C77.423 42.87 74.402 45.849 76.36 51.863 L88.139 83.945 C91.083 91.966 91.042 97.966 98.021 101.014 C104.041 98.056 100.097 90.028 97.152 82.007 Z" fill="url(#ears)" opacity="0.88"></path><path d="M190.605 46.891 C193.577 42.87 195.598 45.856 192.647 52.877 L183.841 80.938 C180.903 89.959 178.965 98.972 171.979 101.021 C166.959 98.056 171.889 88.021 174.841 81.001 Z" fill="url(#ears)" opacity="0.88"></path><path d="M95 213 C98 196 112 192 127 193 C145 190 164 199 169 216 C175 235 157 246 137 248 C116 248 92 239 95 213 Z" fill="url(#belly)" opacity="0.9"></path><path d="M91 114 C102 105 117 102 129 103" fill="none" stroke="#91BCFF" stroke-width="3.2" stroke-linecap="round" opacity="0.37"></path><ellipse cx="86" cy="192" rx="10" ry="4.5" fill="#A1A1FA" opacity="0.5"></ellipse><ellipse cx="180" cy="192" rx="10" ry="4.5" fill="#A1A1FA" opacity="0.5"></ellipse><path d="M96 142 Q106 139 116 142" fill="none" stroke="#455A9B" stroke-width="4.8" stroke-linecap="round" stroke-linejoin="round"></path><path d="M145 142 Q155 139 165 142" fill="none" stroke="#455A9B" stroke-width="4.8" stroke-linecap="round" stroke-linejoin="round"></path><ellipse cx="106" cy="166" rx="15.8" ry="22.7" fill="#FAFDFF"></ellipse><ellipse cx="106" cy="166" rx="9.8" ry="12" fill="url(#eye)"></ellipse><ellipse cx="102.9" cy="162" rx="3.6" ry="4.3" fill="#FFFFFF"></ellipse><ellipse cx="109.6" cy="170" rx="1.5" ry="1.8" fill="#B7BFE9"></ellipse><ellipse cx="155" cy="166" rx="15.8" ry="22.7" fill="#FAFDFF"></ellipse><ellipse cx="155" cy="166" rx="9.8" ry="12" fill="url(#eye)"></ellipse><ellipse cx="151.9" cy="162" rx="3.6" ry="4.3" fill="#FFFFFF"></ellipse><ellipse cx="158.6" cy="170" rx="1.5" ry="1.8" fill="#B7BFE9"></ellipse><path d="M117 201 Q131 208 145 201" fill="none" stroke="#455A9B" stroke-width="3.5" stroke-linecap="round" stroke-linejoin="round"></path></g></g></svg>
