<?xml version='1.0' encoding='utf-8'?>
<svg xmlns="http://www.w3.org/2000/svg" width="32" height="32" viewBox="0 0 32 32" role="img" aria-labelledby="title desc"><title id="title">TaskBelay — 圆形 TB 图标</title><desc id="desc">Circular TB monogram with two open B counters, light palette.</desc><g fill="#192328" transform="translate(1.9750 1.8220) scale(0.051)"><path transform="translate(400.625,37.4375)" d="M0 0 C11.65 11.41 18.51 25.76 18.76 42.09 C18.72 63.3 13.18 80.74 -1.98 95.98 C-2.85 96.83 -3.73 97.68 -4.62 98.56 C-4.95 98.9 -4.95 98.9 -6.61 100.61 C-17.55 111.18 -35.31 117.69 -50.35 117.69 C-51.47 117.69 -52.59 117.69 -53.75 117.69 C-54.97 117.69 -56.2 117.69 -57.46 117.68 C-58.76 117.68 -60.07 117.68 -61.42 117.69 C-65.04 117.69 -68.67 117.68 -72.29 117.68 C-76.2 117.67 -80.11 117.68 -84.02 117.68 C-90.79 117.68 -97.56 117.67 -104.34 117.67 C-114.13 117.66 -123.92 117.66 -133.71 117.66 C-149.6 117.65 -165.48 117.65 -181.37 117.64 C-196.8 117.63 -212.23 117.62 -227.66 117.62 C-228.61 117.62 -229.57 117.62 -230.55 117.62 C-235.32 117.62 -240.09 117.61 -244.86 117.61 C-284.45 117.6 -324.04 117.58 -363.62 117.56 C-362.85 115.99 -362.07 114.42 -361.29 112.84 C-360.86 111.97 -360.42 111.09 -359.97 110.19 C-357.92 106.18 -355.6 102.37 -353.19 98.56 C-352.93 98.16 -352.93 98.16 -351.64 96.11 C-343.96 84.21 -335.18 73.01 -325.55 62.63 C-323.78 60.73 -322.11 58.79 -320.44 56.81 C-311.68 46.8 -302.06 37.79 -291.62 29.56 C-291.21 29.21 -291.21 29.21 -289.13 27.44 C-272.19 13.02 -252.6 2.15 -232.62 -7.44 C-231.88 -7.8 -231.14 -8.16 -230.37 -8.54 C-203.01 -21.76 -172.93 -29.88 -142.62 -32.44 C-141.62 -32.53 -140.62 -32.62 -139.58 -32.71 C-95.45 -36.33 -35.08 -29.88 0 0 Z " /><path transform="translate(441,98)" d="M0 0 C27.36 3.53 53.03 25.03 69.81 45.75 C91.27 73.68 104.92 110.07 100.5 145.52 C97.68 164.61 90.66 182.92 77.04 196.89 C75 199 75 199 72.94 201.6 C65.8 210.43 52.57 217.14 42 221 C42.75 221.29 43.5 221.58 44.27 221.88 C62.61 229.23 79.18 240.76 88 259 C95.39 277.71 94.13 296.15 86.5 314.7 C73.01 344.46 50.77 370.41 24.58 389.81 C23.12 390.91 21.7 392.04 20.27 393.18 C6.21 404.26 -9.75 413.52 -25.97 421.05 C-28.15 422.07 -30.31 423.12 -32.48 424.16 C-70.6 442.27 -113.54 452.24 -155.7 452.04 C-156.34 452.04 -156.34 452.04 -159.59 452.03 C-162.73 452.03 -165.86 452.01 -169 452 C-169.07 410.93 -169.12 369.86 -169.15 328.79 C-169.16 323.93 -169.16 319.08 -169.16 314.23 C-169.17 313.27 -169.17 312.3 -169.17 311.3 C-169.18 295.68 -169.2 280.05 -169.23 264.42 C-169.26 248.38 -169.28 232.34 -169.28 216.3 C-169.29 206.4 -169.3 196.51 -169.32 186.61 C-169.34 179.82 -169.34 173.03 -169.34 166.24 C-169.34 162.33 -169.34 158.41 -169.36 154.5 C-169.37 150.91 -169.37 147.32 -169.36 143.73 C-169.36 141.83 -169.37 139.93 -169.39 138.03 C-169.31 122.36 -165.09 110.72 -154.39 99.29 C-144.26 89.58 -131.35 84.73 -117.43 84.69 C-115.8 84.67 -114.16 84.64 -112.52 84.62 C-109.99 84.59 -107.46 84.56 -104.93 84.54 C-74.98 84.28 -48.06 75.51 -26.12 54.5 C-12.03 39.74 -3.83 19.85 0 0 Z M-111.79 123.32 C-113.18 126.4 -113.38 128.53 -113.39 131.9 C-113.4 133.07 -113.41 134.23 -113.42 135.43 C-113.41 136.68 -113.4 137.93 -113.4 139.22 C-113.4 140.51 -113.4 141.8 -113.41 143.13 C-113.41 145.86 -113.41 148.58 -113.39 151.31 C-113.37 154.8 -113.38 158.28 -113.4 161.77 C-113.42 165.11 -113.41 168.44 -113.4 171.78 C-113.4 173.03 -113.41 174.28 -113.42 175.57 C-113.41 176.73 -113.4 177.9 -113.39 179.1 C-113.39 180.12 -113.38 181.14 -113.38 182.19 C-112.93 185.48 -111.96 187.34 -110 190 C-100.47 196.36 -80.41 193.16 -69.19 193.12 C-68.2 193.12 -67.22 193.12 -66.2 193.12 C-59.47 193.1 -52.73 193.06 -46 193 C-45.22 192.99 -44.45 192.99 -43.65 192.98 C-39.22 192.94 -34.8 192.86 -30.38 192.75 C-29.35 192.74 -28.33 192.72 -27.28 192.71 C-15.92 192.32 -5.03 188.22 2.97 179.96 C9.76 171.8 13.32 162.67 13 152 C11.86 141.5 8.63 132 0.56 124.83 C-1.78 123.16 -3.92 121.94 -6.56 120.81 C-7.31 120.49 -8.05 120.17 -8.82 119.83 C-13.76 117.95 -18.39 117.85 -23.64 117.84 C-24.51 117.83 -25.38 117.83 -26.27 117.82 C-29.15 117.81 -32.03 117.8 -34.9 117.8 C-36.9 117.79 -38.9 117.79 -40.9 117.78 C-45.09 117.77 -49.29 117.76 -53.48 117.76 C-58.85 117.75 -64.22 117.73 -69.59 117.7 C-73.72 117.68 -77.85 117.68 -81.98 117.68 C-83.97 117.67 -85.95 117.67 -87.93 117.65 C-90.7 117.64 -93.46 117.64 -96.23 117.64 C-96.64 117.64 -96.64 117.64 -98.71 117.62 C-104.51 117.66 -108.08 118.51 -111.79 123.32 Z M-111 252 C-113.47 256 -113.29 260.26 -113.27 264.83 C-113.28 265.61 -113.28 266.38 -113.29 267.17 C-113.3 269.72 -113.3 272.27 -113.3 274.81 C-113.3 276.59 -113.31 278.36 -113.31 280.14 C-113.32 283.85 -113.32 287.57 -113.32 291.28 C-113.31 296.04 -113.33 300.8 -113.35 305.56 C-113.36 309.22 -113.37 312.88 -113.36 316.55 C-113.36 318.3 -113.37 320.05 -113.38 321.81 C-113.39 324.26 -113.38 326.71 -113.37 329.17 C-113.38 329.89 -113.39 330.61 -113.4 331.36 C-113.35 335.75 -112.71 338.52 -110 342 C-106.39 344.41 -103.71 344.33 -99.54 344.37 C-98.78 344.38 -98.02 344.4 -97.24 344.41 C-94.73 344.46 -92.21 344.49 -89.7 344.52 C-87.94 344.55 -86.19 344.57 -84.43 344.6 C-80.74 344.65 -77.05 344.7 -73.36 344.74 C-68.67 344.8 -63.98 344.87 -59.29 344.96 C-55.65 345.02 -52.02 345.07 -48.39 345.11 C-46.66 345.13 -44.93 345.16 -43.2 345.19 C-25.57 345.51 -8.28 343.74 5.19 330.97 C15.6 319.64 19.49 307.1 19.21 291.92 C18.54 279.33 13.87 269.25 4.62 260.62 C-9.68 248.91 -26.11 248.53 -43.85 248.6 C-45.61 248.6 -47.36 248.6 -49.12 248.59 C-52.77 248.59 -56.41 248.59 -60.06 248.61 C-64.72 248.63 -69.38 248.62 -74.04 248.6 C-77.66 248.59 -81.27 248.59 -84.88 248.6 C-86.6 248.6 -88.32 248.6 -90.04 248.59 C-92.44 248.58 -94.83 248.6 -97.23 248.61 C-97.93 248.61 -98.63 248.6 -99.35 248.59 C-103.95 248.65 -107.18 249.41 -111 252 Z " /><path transform="translate(25,183)" d="M0 0 C20.02 -0.05 40.04 -0.08 60.06 -0.1 C69.35 -0.11 78.65 -0.13 87.95 -0.15 C96.05 -0.17 104.16 -0.18 112.26 -0.19 C116.55 -0.19 120.84 -0.2 125.13 -0.21 C129.18 -0.23 133.22 -0.23 137.26 -0.23 C138.74 -0.23 140.22 -0.23 141.7 -0.24 C153.29 -0.3 163.86 0.23 174.25 5.69 C174.94 6.04 175.63 6.4 176.34 6.77 C188.02 13.03 194.73 23.48 199.14 35.83 C200.65 41.38 200.54 46.83 200.48 52.55 C200.48 53.88 200.49 55.22 200.49 56.56 C200.5 60.21 200.48 63.85 200.46 67.5 C200.45 71.44 200.45 75.39 200.46 79.33 C200.46 86.15 200.45 92.97 200.42 99.8 C200.39 109.66 200.38 119.52 200.37 129.39 C200.37 145.39 200.34 161.4 200.3 177.4 C200.27 192.95 200.24 208.49 200.22 224.03 C200.22 224.99 200.22 225.95 200.22 226.94 C200.21 231.75 200.21 236.56 200.2 241.37 C200.16 281.25 200.09 321.12 200 361 C197.63 360.54 195.27 360.07 192.9 359.61 C192.24 359.48 191.57 359.35 190.89 359.22 C184.62 357.98 178.54 356.28 172.44 354.38 C171.33 354.03 170.22 353.68 169.08 353.33 C151.93 347.87 135.62 340.94 120 332 C119.36 331.63 118.72 331.27 118.06 330.89 C104.74 323.21 91.78 314.91 80 305 C78.89 304.08 77.78 303.16 76.68 302.23 C75.51 301.26 74.35 300.29 73.19 299.31 C72.92 299.09 72.92 299.09 71.55 297.94 C69.03 295.81 66.63 293.63 64.3 291.29 C62 289 62 289 59 287 C59 286.34 59 285.68 59 285 C58.34 285 57.68 285 57 285 C55.59 283.6 55.59 283.6 53.94 281.62 C51.28 278.49 48.56 275.44 45.75 272.44 C40.43 266.54 35.83 260.17 31.22 253.71 C30.2 252.27 29.15 250.86 28.1 249.45 C22.24 241.47 17.66 232.72 13 224 C12.82 223.67 12.82 223.67 11.93 222.02 C-2.52 195.07 -12.43 165.22 -17 135 C-17.12 134.29 -17.23 133.57 -17.35 132.84 C-20.95 109.97 -20.99 83.81 -17 61 C-16.82 59.95 -16.63 58.91 -16.45 57.83 C-12.93 38.39 -9 17.74 0 0 Z " /></g></svg>